<svg xmlns="http://www.w3.org/2000/svg"
			width="50"
			height="65"
			viewBox="209 204 254 134"
			fill="transparent">
      <path d="M5000 0H0v5000h5000V0" style="stroke:none" transform="matrix(.13333 0 0 -.13333 0 666.667)"/><path d="m2339.48 2016.35-130.38 73.98-130.37-73.98v210.31h260.75v-210.31" style="fill:#e45f4d;fill-opacity:1;fill-rule:nonzero;stroke:none" transform="matrix(.13333 0 0 -.13333 0 666.667)"/><path d="M3092.67 3409.62v202.24c0 27.01-21.9 48.91-48.91 48.91H2001.65c-89.04 0-161.21-72.18-161.21-161.21V2320.11c0-89.04 72.17-161.22 161.21-161.22h1106.52c19.91 0 36.05 16.15 36.05 36.06v1163.12c0 28.47-23.08 51.55-51.55 51.55" style="fill:#527ebc;fill-opacity:1;fill-rule:nonzero;stroke:none" transform="matrix(.13333 0 0 -.13333 0 666.667)"/><path d="M1995.65 3342.38c-85.61 3.16-154.13 72.9-155.12 159.05-.01-.63-.09-1181.32-.09-1181.32 0-87.01 68.98-157.73 155.21-160.91v1183.18" style="fill:#233559;fill-opacity:1;fill-rule:nonzero;stroke:none" transform="matrix(.13333 0 0 -.13333 0 666.667)"/><path d="M3047.08 3591.76H2007.3c-49.61 0-89.82-40.77-89.82-91.07 0-50.29 40.21-91.07 89.82-91.07h1039.78v182.14" style="fill:#fff;fill-opacity:1;fill-rule:nonzero;stroke:none" transform="matrix(.13333 0 0 -.13333 0 666.667)"/><path d="M1920.28 3478.49c9.79-39.54 44.98-68.87 87.02-68.87h1039.78v137.74H2007.3c-42.04 0-77.23-29.32-87.02-68.87M3063.14 2224.22H1967.01v7.5h1096.13c9.87 0 17.9 7.88 17.9 17.54v1064.78c0 9.68-8.03 17.55-17.9 17.55H1995.65v7.5h1067.49c14 0 25.4-11.24 25.4-25.05V2249.26c0-13.81-11.4-25.04-25.4-25.04" style="fill:#233559;fill-opacity:1;fill-rule:nonzero;stroke:none" transform="matrix(.13333 0 0 -.13333 0 666.667)"/><path d="M3092.67 3409.62h-72.21v23.21h72.21v-23.21" style="fill:#233559;fill-opacity:1;fill-rule:nonzero;stroke:none" transform="matrix(.13333 0 0 -.13333 0 666.667)"/><path d="M1884.65 2599.67h-54.74c-75.55 0-136.79 61.24-136.79 136.78v187.72c0 75.54 61.24 136.79 136.79 136.79h53.51c20.35 0 36.86 16.5 36.86 36.86v45.72c0 23.03-18.67 41.7-41.7 41.7h-48.67c-144.19 0-261.07-116.89-261.07-261.07v-187.73c0-144.18 116.88-261.06 261.06-261.06h59.97c16.79 0 30.41 13.62 30.41 30.41v58.25c0 19.68-15.96 35.63-35.63 35.63" style="fill:#527ebc;fill-opacity:1;fill-rule:nonzero;stroke:none" transform="matrix(.13333 0 0 -.13333 0 666.667)"/><path d="M2569.88 2573.26c42.96 102.76 5.77 158.86-36.28 222.1-41.49 62.42-87.47 131.77-41.19 246.85-81.89-30.37-141.37-121.68-141.37-229.6 0-132.74 89.98-240.35 200.96-240.35 6.03 0 11.99.38 17.88 1" style="fill:#fff;fill-opacity:1;fill-rule:nonzero;stroke:none" transform="matrix(.13333 0 0 -.13333 0 666.667)"/><path d="M2575.76 3052.96c-2.75 0-5.48-.12-8.2-.25-56.52-110.6-18.32-168.24 25.25-233.77 39.77-59.82 83.61-125.86 50.56-232.69 77.72 33.21 133.35 122 133.35 226.36 0 132.74-89.97 240.35-200.96 240.35" style="fill:#fff;fill-opacity:1;fill-rule:nonzero;stroke:none" transform="matrix(.13333 0 0 -.13333 0 666.667)"/><path d="M2510.77 3901.9c-66.37-135.53 45.34-183.16 56.65-308.61 3.38-45.5-20.93-91.06-56.73-116.14-4.76-3.44-11.4-2.37-14.83 2.38a10.606 10.606 0 0 0-1.23 10.24c7.28 17.76 13.94 34.55 16.15 50.75 7.6 53.24-20.84 87.7-46.6 138.76-19.34 37.03-36.92 80.04-33.21 124.55 1.9 23.38 9.42 46.06 21.08 64.65 11.84 18.57 26.22 34.06 42.7 46.33 4.7 3.51 11.35 2.53 14.86-2.17 2.4-3.23 2.67-7.3 1.16-10.74M2327.51 3780.53c-6.78-23.54-13.06-45.83-8.36-68.2 15.55-62.42 83.52-129.44 42.16-201.06-7.49-12.67-36.62-48.49-48.84-30.37a10.876 10.876 0 0 0-1.12 8.63c7.2 23.38 11.58 44.29 3.9 65.87-5.8 18.09-19.07 38.34-32.18 63.37-23.42 40.77-36.05 100.8-5.69 142.28 8.25 11.23 37.36 46.57 49.1 28.83 1.82-2.94 2.02-6.29 1.03-9.35M2730.68 3780.53c-6.78-23.54-13.06-45.83-8.36-68.2 15.55-62.42 83.52-129.44 42.16-201.06-7.49-12.67-36.62-48.49-48.84-30.37a10.876 10.876 0 0 0-1.12 8.63c7.2 23.38 11.57 44.29 3.9 65.87-5.8 18.09-19.07 38.34-32.18 63.37-23.41 40.77-36.05 100.8-5.69 142.28 8.25 11.23 37.36 46.57 49.1 28.83 1.81-2.94 2.02-6.29 1.03-9.35" style="fill:#f4ead0;fill-opacity:1;fill-rule:nonzero;stroke:none" transform="matrix(.13333 0 0 -.13333 0 666.667)"/></svg>